<?xml version="1.0" encoding="UTF-8" standalone="no"?>
<!-- Created with Inkscape (http://www.inkscape.org/) -->

<svg
   xmlns:dc="http://purl.org/dc/elements/1.1/"
   xmlns:cc="http://creativecommons.org/ns#"
   xmlns:rdf="http://www.w3.org/1999/02/22-rdf-syntax-ns#"
   xmlns:svg="http://www.w3.org/2000/svg"
   xmlns="http://www.w3.org/2000/svg"
   xmlns:xlink="http://www.w3.org/1999/xlink"
   xmlns:sodipodi="http://sodipodi.sourceforge.net/DTD/sodipodi-0.dtd"
   xmlns:inkscape="http://www.inkscape.org/namespaces/inkscape"
   width="744.09448819"
   height="1052.3622047"
   id="svg2"
   version="1.1"
   inkscape:version="0.48.4 r9939"
   sodipodi:docname="dataistoxic.svg">
  <defs
     id="defs4">
    <clipPath
       clipPathUnits="userSpaceOnUse"
       id="clipPath4048">
      <path
         sodipodi:type="arc"
         style="fill:#999999;fill-opacity:1;stroke:#000000;stroke-width:5;stroke-miterlimit:4;stroke-opacity:1;stroke-dasharray:none"
         id="path4050"
         sodipodi:cx="177.14285"
         sodipodi:cy="306.64789"
         sodipodi:rx="260"
         sodipodi:ry="250"
         d="m 437.14285,306.64789 a 260,250 0 1 1 -519.999997,0 260,250 0 1 1 519.999997,0 z"
         transform="matrix(1.0187361,0,0,1.0851999,174.53817,193.87365)" />
    </clipPath>
  </defs>
  <sodipodi:namedview
     id="base"
     pagecolor="#ffffff"
     bordercolor="#666666"
     borderopacity="1.0"
     inkscape:pageopacity="0.0"
     inkscape:pageshadow="2"
     inkscape:zoom="0.9899495"
     inkscape:cx="317.90612"
     inkscape:cy="480.66075"
     inkscape:document-units="px"
     inkscape:current-layer="layer1"
     showgrid="false"
     inkscape:window-width="1600"
     inkscape:window-height="1000"
     inkscape:window-x="0"
     inkscape:window-y="24"
     inkscape:window-maximized="1" />
  <metadata
     id="metadata7">
    <rdf:RDF>
      <cc:Work
         rdf:about="">
        <dc:format>image/svg+xml</dc:format>
        <dc:type
           rdf:resource="http://purl.org/dc/dcmitype/StillImage" />
        <dc:title></dc:title>
      </cc:Work>
    </rdf:RDF>
  </metadata>
  <g
     inkscape:label="Layer 1"
     inkscape:groupmode="layer"
     id="layer1">
    <path
       sodipodi:type="arc"
       style="fill:#ffff00;fill-opacity:1;stroke:#000000;stroke-opacity:1;stroke-width:5;stroke-miterlimit:4;stroke-dasharray:none"
       id="path2987"
       sodipodi:cx="354.28571"
       sodipodi:cy="522.36218"
       sodipodi:rx="268.57144"
       sodipodi:ry="268.57144"
       d="m 622.85715,522.36218 a 268.57144,268.57144 0 1 1 -537.142886,0 268.57144,268.57144 0 1 1 537.142886,0 z"
       inkscape:export-filename="/home/n8fr8/Desktop/dataistoxic.png"
       inkscape:export-xdpi="602.3222"
       inkscape:export-ydpi="602.3222" />
    <text
       xml:space="preserve"
       style="font-size:40px;font-style:normal;font-weight:normal;line-height:125%;letter-spacing:0px;word-spacing:0px;fill:#808080;fill-opacity:1;stroke:none;font-family:Sans"
       x="70.000008"
       y="209.50504"
       id="text3939"
       sodipodi:linespacing="125%"
       clip-path="url(#clipPath4048)"
       inkscape:export-filename="/home/n8fr8/Desktop/dataistoxic.png"
       inkscape:export-xdpi="602.3222"
       inkscape:export-ydpi="602.3222"><tspan
         sodipodi:role="line"
         x="70.000008"
         y="209.50504"
         style="font-size:25px;font-style:normal;font-variant:normal;font-weight:normal;font-stretch:normal;text-align:start;line-height:125%;writing-mode:lr-tb;text-anchor:start;fill:#808080;font-family:Sans;-inkscape-font-specification:Sans"
         id="tspan4010">emailsasldkjasdlkjas</tspan><tspan
         sodipodi:role="line"
         x="70.000008"
         y="240.75504"
         style="font-size:25px;font-style:normal;font-variant:normal;font-weight:normal;font-stretch:normal;text-align:start;line-height:125%;writing-mode:lr-tb;text-anchor:start;fill:#808080;font-family:Sans;-inkscape-font-specification:Sans"
         id="tspan4183">daskd</tspan><tspan
         sodipodi:role="line"
         x="70.000008"
         y="272.00504"
         style="font-size:25px;font-style:normal;font-variant:normal;font-weight:normal;font-stretch:normal;text-align:start;line-height:125%;writing-mode:lr-tb;text-anchor:start;fill:#808080;font-family:Sans;-inkscape-font-specification:Sans"
         id="tspan4201">lasjkdemails, birthdays, children </tspan><tspan
         sodipodi:role="line"
         x="70.000008"
         y="303.25504"
         style="font-size:25px;font-style:normal;font-variant:normal;font-weight:normal;font-stretch:normal;text-align:start;line-height:125%;writing-mode:lr-tb;text-anchor:start;fill:#808080;font-family:Sans;-inkscape-font-specification:Sans"
         id="tspan4193">sleep habits, location, credit score, devr</tspan><tspan
         sodipodi:role="line"
         x="70.000008"
         y="334.50504"
         style="font-size:25px;font-style:normal;font-variant:normal;font-weight:normal;font-stretch:normal;text-align:start;line-height:125%;writing-mode:lr-tb;text-anchor:start;fill:#808080;font-family:Sans;-inkscape-font-specification:Sans"
         id="tspan4195">credit score, mortgage, website visitor logs</tspan><tspan
         sodipodi:role="line"
         x="70.000008"
         y="365.75504"
         style="font-size:25px;font-style:normal;font-variant:normal;font-weight:normal;font-stretch:normal;text-align:start;line-height:125%;writing-mode:lr-tb;text-anchor:start;fill:#808080;font-family:Sans;-inkscape-font-specification:Sans"
         id="tspan4197">travel plans, passwords, health conditions</tspan><tspan
         sodipodi:role="line"
         x="70.000008"
         y="397.00504"
         style="font-size:25px;font-style:normal;font-variant:normal;font-weight:normal;font-stretch:normal;text-align:start;line-height:125%;writing-mode:lr-tb;text-anchor:start;fill:#808080;font-family:Sans;-inkscape-font-specification:Sans"
         id="tspan4199">worbirthdays, viewing habits, fitness tracking</tspan><tspan
         sodipodi:role="line"
         x="70.000008"
         y="428.25504"
         style="font-size:25px;font-style:normal;font-variant:normal;font-weight:normal;font-stretch:normal;text-align:start;line-height:125%;writing-mode:lr-tb;text-anchor:start;fill:#808080;font-family:Sans;-inkscape-font-specification:Sans"
         id="tspan4189">dklspeeding tickets, transcripts, home security </tspan><tspan
         sodipodi:role="line"
         x="70.000008"
         y="459.50504"
         style="font-size:25px;font-style:normal;font-variant:normal;font-weight:normal;font-stretch:normal;text-align:start;line-height:125%;writing-mode:lr-tb;text-anchor:start;fill:#808080;font-family:Sans;-inkscape-font-specification:Sans"
         id="tspan4205">asgenetic traits, favorite restaurants, shopping</tspan><tspan
         sodipodi:role="line"
         x="70.000008"
         y="490.75504"
         style="font-size:25px;font-style:normal;font-variant:normal;font-weight:normal;font-stretch:normal;text-align:start;line-height:125%;writing-mode:lr-tb;text-anchor:start;fill:#808080;font-family:Sans;-inkscape-font-specification:Sans"
         id="tspan4207">private messages, social graph, political views</tspan><tspan
         sodipodi:role="line"
         x="70.000008"
         y="522.005"
         style="font-size:25px;font-style:normal;font-variant:normal;font-weight:normal;font-stretch:normal;text-align:start;line-height:125%;writing-mode:lr-tb;text-anchor:start;fill:#808080;font-family:Sans;-inkscape-font-specification:Sans"
         id="tspan4209">gmedical records, prescriptions drugs, debt</tspan><tspan
         sodipodi:role="line"
         x="70.000008"
         y="553.255"
         style="font-size:25px;font-style:normal;font-variant:normal;font-weight:normal;font-stretch:normal;text-align:start;line-height:125%;writing-mode:lr-tb;text-anchor:start;fill:#808080;font-family:Sans;-inkscape-font-specification:Sans"
         id="tspan4211">savings, college photos from </tspan><tspan
         sodipodi:role="line"
         x="70.000008"
         y="584.505"
         style="font-size:25px;font-style:normal;font-variant:normal;font-weight:normal;font-stretch:normal;text-align:start;line-height:125%;writing-mode:lr-tb;text-anchor:start;fill:#808080;font-family:Sans;-inkscape-font-specification:Sans"
         id="tspan4213">greatest fears and doubts</tspan><tspan
         sodipodi:role="line"
         x="70.000008"
         y="615.755"
         style="font-size:25px;font-style:normal;font-variant:normal;font-weight:normal;font-stretch:normal;text-align:start;line-height:125%;writing-mode:lr-tb;text-anchor:start;fill:#808080;font-family:Sans;-inkscape-font-specification:Sans"
         id="tspan4215">asdlkjasdljkasdlkjsadlaskjdlakjalskdjalskdjasldkjasldkjasd</tspan></text>
    <path
       style="fill:none;stroke:#000000;stroke-width:0.99202579px;stroke-linecap:butt;stroke-linejoin:miter;stroke-opacity:1"
       d="m 89.996013,582.36515 c 29.928547,-43.30602 60.258017,-72.86142 113.869507,-72.86142 9.08423,0 19.33879,-2.37287 26.71012,4.28597 24.98861,22.57327 24.9791,61.10166 47.79707,84.29066 5.01077,5.09225 34.9822,-3.1234 37.9565,-4.28597 33.07028,-12.92616 48.84544,-39.09827 64.66664,-68.57544 8.07813,-15.05076 15.67709,-52.90362 36.55069,-57.14622 12.22222,-2.48419 34.63928,-7.4002 46.39128,-1.42865 13.65209,6.93704 26.73345,39.54587 40.7681,51.43159 34.21767,28.97839 97.21325,5.28105 113.8695,-28.57311"
       id="path3774"
       inkscape:connector-curvature="0"
       inkscape:export-filename="/home/n8fr8/Desktop/dataistoxic.png"
       inkscape:export-xdpi="602.3222"
       inkscape:export-ydpi="602.3222" />
    <text
       xml:space="preserve"
       style="font-size:40px;font-style:normal;font-weight:normal;line-height:125%;letter-spacing:0px;word-spacing:0px;fill:#000000;fill-opacity:1;stroke:none;font-family:Sans"
       x="211.42857"
       y="402.36218"
       id="text3776"
       sodipodi:linespacing="125%"
       inkscape:export-filename="/home/n8fr8/Desktop/dataistoxic.png"
       inkscape:export-xdpi="602.3222"
       inkscape:export-ydpi="602.3222"><tspan
         sodipodi:role="line"
         id="tspan3778" /></text>
    <text
       xml:space="preserve"
       style="font-size:40px;font-style:normal;font-weight:normal;line-height:125%;letter-spacing:0px;word-spacing:0px;fill:#ffff00;fill-opacity:1;stroke:none;font-family:Sans"
       x="174.66402"
       y="400.86227"
       id="text3784-6"
       sodipodi:linespacing="125%"
       inkscape:export-filename="/home/n8fr8/Desktop/dataistoxic.png"
       inkscape:export-xdpi="602.3222"
       inkscape:export-ydpi="602.3222"><tspan
         sodipodi:role="line"
         id="tspan3786-7"
         x="174.66402"
         y="400.86227"
         style="font-size:80px;font-style:normal;font-variant:normal;font-weight:bold;font-stretch:normal;text-align:start;line-height:125%;writing-mode:lr-tb;text-anchor:start;fill:#ffff00;font-family:DejaVu Sans;-inkscape-font-specification:DejaVu Sans Bold">DATA</tspan></text>
    <text
       xml:space="preserve"
       style="font-size:40px;font-style:normal;font-weight:normal;line-height:125%;letter-spacing:0px;word-spacing:0px;fill:#000000;fill-opacity:1;stroke:none;font-family:Sans"
       x="178.28571"
       y="396.64789"
       id="text3784"
       sodipodi:linespacing="125%"
       inkscape:export-filename="/home/n8fr8/Desktop/dataistoxic.png"
       inkscape:export-xdpi="602.3222"
       inkscape:export-ydpi="602.3222"><tspan
         sodipodi:role="line"
         id="tspan3786"
         x="178.28571"
         y="396.64789"
         style="font-size:80px;font-style:normal;font-variant:normal;font-weight:bold;font-stretch:normal;text-align:start;line-height:125%;writing-mode:lr-tb;text-anchor:start;font-family:DejaVu Sans;-inkscape-font-specification:DejaVu Sans Bold">DATA</tspan></text>
    <text
       xml:space="preserve"
       style="font-size:40px;font-style:normal;font-weight:normal;line-height:125%;letter-spacing:0px;word-spacing:0px;fill:#000000;fill-opacity:1;stroke:none;font-family:Sans"
       x="247.55301"
       y="688.66522"
       id="text3784-3"
       sodipodi:linespacing="125%"
       inkscape:export-filename="/home/n8fr8/Desktop/dataistoxic.png"
       inkscape:export-xdpi="602.3222"
       inkscape:export-ydpi="602.3222"><tspan
         sodipodi:role="line"
         id="tspan3786-6"
         x="247.55301"
         y="688.66522"
         style="font-size:80px;font-style:normal;font-variant:normal;font-weight:bold;font-stretch:normal;text-align:start;line-height:125%;writing-mode:lr-tb;text-anchor:start;font-family:DejaVu Sans;-inkscape-font-specification:DejaVu Sans Bold;fill:#ffffff;fill-opacity:1">TOXIC</tspan></text>
    <text
       xml:space="preserve"
       style="font-size:40px;font-style:normal;font-weight:normal;line-height:125%;letter-spacing:0px;word-spacing:0px;fill:#ffff00;fill-opacity:1;stroke:none;font-family:Sans"
       x="276.96899"
       y="497.78696"
       id="text3784-7-5"
       sodipodi:linespacing="125%"
       inkscape:export-filename="/home/n8fr8/Desktop/dataistoxic.png"
       inkscape:export-xdpi="602.3222"
       inkscape:export-ydpi="602.3222"><tspan
         sodipodi:role="line"
         id="tspan3786-5-3"
         x="276.96899"
         y="497.78696"
         style="font-size:80px;font-style:normal;font-variant:normal;font-weight:bold;font-stretch:normal;text-align:start;line-height:125%;writing-mode:lr-tb;text-anchor:start;fill:#ffff00;font-family:DejaVu Sans;-inkscape-font-specification:DejaVu Sans Bold">IS</tspan></text>
    <text
       xml:space="preserve"
       style="font-size:40px;font-style:normal;font-weight:normal;line-height:125%;letter-spacing:0px;word-spacing:0px;fill:#000000;fill-opacity:1;stroke:none;font-family:Sans"
       x="278.70529"
       y="492.32941"
       id="text3784-7"
       sodipodi:linespacing="125%"
       inkscape:export-filename="/home/n8fr8/Desktop/dataistoxic.png"
       inkscape:export-xdpi="602.3222"
       inkscape:export-ydpi="602.3222"><tspan
         sodipodi:role="line"
         id="tspan3786-5"
         x="278.70529"
         y="492.32941"
         style="font-size:80px;font-style:normal;font-variant:normal;font-weight:bold;font-stretch:normal;text-align:start;line-height:125%;writing-mode:lr-tb;text-anchor:start;font-family:DejaVu Sans;-inkscape-font-specification:DejaVu Sans Bold">IS</tspan></text>
    <path
       style="fill:#000000;fill-opacity:1;stroke:#000000;stroke-width:7.14285707;stroke-miterlimit:4;stroke-opacity:1;stroke-dasharray:none"
       d="M 331.36683,786.48226 C 247.5006,778.83294 173.39781,732.93656 128.26098,660.68637 115.57922,640.38677 103.7967,612.80654 97.840783,589.47953 l -2.970879,-11.63579 5.984256,-8.19955 c 3.29134,-4.50975 12.46743,-14.68912 20.39132,-22.62082 26.61995,-26.64619 49.70862,-36.11313 88.40658,-36.24891 14.71972,-0.0516 18.60253,1.50412 25.68354,10.29087 7.07312,8.77697 11.45993,16.95577 18.17373,33.88326 11.17773,28.1823 20.3343,43.47959 27.11804,45.30427 4.75695,1.27952 24.82749,-1.72827 35.08755,-5.25825 29.68648,-10.21365 53.88372,-38.55169 73.60282,-86.19829 12.48679,-30.17138 18.21953,-37.16755 32.98125,-40.24987 24.55571,-5.12736 37.03143,-4.42967 44.93885,2.51315 2.7699,2.432 10.81265,12.97112 17.87279,23.42027 7.06013,10.44915 15.76146,21.57301 19.33627,24.71969 18.2125,16.03129 50.25917,17.07985 80.49136,2.63367 9.33256,-4.45949 14.51166,-8.1686 22.37807,-16.02654 l 10.23521,-10.22418 0.83622,4.18106 c 1.59908,7.99542 0.82278,40.96798 -1.34174,56.9891 -7.88898,58.39159 -33.77926,110.94181 -75.06422,152.35991 -40.12714,40.25655 -90.31447,65.94638 -146.60598,75.04449 -16.806,2.71626 -47.49758,3.83116 -64.00899,2.32519 l 0,0 z"
       id="path3848"
       inkscape:connector-curvature="0"
       inkscape:export-filename="/home/n8fr8/Desktop/dataistoxic.png"
       inkscape:export-xdpi="602.3222"
       inkscape:export-ydpi="602.3222" />
    <text
       xml:space="preserve"
       style="font-size:51.89147949px;font-style:normal;font-weight:normal;line-height:125%;letter-spacing:0px;word-spacing:0px;fill:#ffffff;fill-opacity:1;stroke:none;font-family:Sans"
       x="204.9333"
       y="687.06537"
       id="text3784-35"
       sodipodi:linespacing="125%"
       inkscape:export-filename="/home/n8fr8/Desktop/dataistoxic.png"
       inkscape:export-xdpi="602.3222"
       inkscape:export-ydpi="602.3222"><tspan
         sodipodi:role="line"
         id="tspan3786-62"
         x="204.9333"
         y="687.06537"
         style="font-size:103.78295898px;font-style:normal;font-variant:normal;font-weight:bold;font-stretch:normal;text-align:start;line-height:125%;writing-mode:lr-tb;text-anchor:start;fill:#ffff00;font-family:DejaVu Sans;-inkscape-font-specification:DejaVu Sans Bold">TOXIC</tspan></text>
    <flowRoot
       xml:space="preserve"
       id="flowRoot3931"
       style="fill:black;stroke:none;stroke-opacity:1;stroke-width:1px;stroke-linejoin:miter;stroke-linecap:butt;fill-opacity:1;font-family:Sans;font-style:normal;font-weight:normal;font-size:40px;line-height:125%;letter-spacing:0px;word-spacing:0px"
       inkscape:export-filename="/home/n8fr8/Desktop/dataistoxic.png"
       inkscape:export-xdpi="602.3222"
       inkscape:export-ydpi="602.3222"><flowRegion
         id="flowRegion3933"><rect
           id="rect3935"
           width="451.42856"
           height="120"
           x="-260"
           y="549.50507" /></flowRegion><flowPara
         id="flowPara3937" /></flowRoot>    <g
       transform="matrix(0.25466282,0,0,0.25466282,260.50252,591.1748)"
       id="g3712">
      <circle
         d="M 440,240 C 440,350.45695 350.45695,440 240,440 129.54305,440 40,350.45695 40,240 40,129.54305 129.54305,40 240,40 c 110.45695,0 200,89.54305 200,200 z"
         transform="matrix(0.828945,0,0,0.828945,25.7867,31.56393)"
         sodipodi:ry="200"
         sodipodi:rx="200"
         sodipodi:cy="240"
         sodipodi:cx="240"
         id="circle3852"
         style="font-size:12px;fill:#ffff00;fill-opacity:1;stroke:none"
         r="200"
         cy="240"
         cx="240" />
      <circle
         d="M 440,240 C 440,350.45695 350.45695,440 240,440 129.54305,440 40,350.45695 40,240 40,129.54305 129.54305,40 240,40 c 110.45695,0 200,89.54305 200,200 z"
         transform="matrix(0.828945,0,0,0.828945,25.7867,31.56393)"
         sodipodi:ry="200"
         sodipodi:rx="200"
         sodipodi:cy="240"
         sodipodi:cx="240"
         id="circle2840"
         style="font-size:12px;fill:none;stroke:#000000;stroke-width:20"
         r="200"
         cy="240"
         cx="240" />
      <g
         style="fill:#000000;fill-opacity:1"
         transform="matrix(0.566972,0,0,0.566972,-112.21,-256.8342)"
         id="g2847">
        <path
           inkscape:connector-curvature="0"
           id="path2227"
           style="color:#000000;fill:#000000;fill-opacity:1;fill-rule:evenodd;stroke:none;stroke-width:1px;marker:none;visibility:visible;display:inline;overflow:visible"
           d="M 556.81695,927.69705 469.2857,1079.2908 c 79.67434,46 170.32565,46 250,0 L 631.75445,927.69705 c -0.57914,0.33516 -1.12996,0.71127 -1.71875,1.03125 -2.12534,1.15503 -4.31953,2.20703 -6.5625,3.15625 -2.24297,0.94922 -4.55825,1.80044 -6.90625,2.53125 -2.348,0.73081 -4.74707,1.34395 -7.1875,1.84375 -2.44043,0.4998 -4.91724,0.8688 -7.4375,1.125 -2.52026,0.2562 -5.06875,0.40625 -7.65625,0.40625 -2.5875,0 -5.13599,-0.15005 -7.65625,-0.40625 -2.52026,-0.2562 -4.99707,-0.6252 -7.4375,-1.125 -2.44043,-0.4998 -4.8395,-1.11294 -7.1875,-1.84375 -2.348,-0.73081 -4.66328,-1.58203 -6.90625,-2.53125 -2.24297,-0.94922 -4.43716,-2.00122 -6.5625,-3.15625 -0.58879,-0.31998 -1.13961,-0.69609 -1.71875,-1.03125 z" />
        <path
           inkscape:connector-curvature="0"
           id="path2189"
           style="color:#000000;fill:#000000;fill-opacity:1;fill-rule:evenodd;stroke:none;stroke-width:1px;marker:none;visibility:visible;display:inline;overflow:visible"
           d="m 469.2857,646.25955 c -79.67434,46 -124.99999,124.53125 -125,216.53125 l 175,0 c 0,-2.5875 0.1188,-5.16723 0.375,-7.6875 0.2562,-2.52027 0.65645,-4.99707 1.15625,-7.4375 0.4998,-2.44043 1.11294,-4.8395 1.84375,-7.1875 0.73081,-2.348 1.58203,-4.63203 2.53125,-6.875 0.94922,-2.24297 2.00122,-4.43716 3.15625,-6.5625 1.15503,-2.12534 2.40176,-4.19238 3.75,-6.1875 1.34824,-1.99512 2.78364,-3.92895 4.3125,-5.78125 1.52886,-1.8523 3.14687,-3.61562 4.84375,-5.3125 1.69688,-1.69688 3.49145,-3.31489 5.34375,-4.84375 1.8523,-1.52886 3.75488,-2.96426 5.75,-4.3125 1.43917,-0.97255 2.9609,-1.84582 4.46875,-2.71875 l -87.53125,-151.625 z" />
        <path
           inkscape:connector-curvature="0"
           id="path2187"
           style="color:#000000;fill:#000000;fill-opacity:1;fill-rule:evenodd;stroke:none;stroke-width:1px;marker:none;visibility:visible;display:inline;overflow:visible"
           d="m 719.2857,646.25955 -87.53125,151.625 c 1.50785,0.87293 3.02958,1.7462 4.46875,2.71875 1.99512,1.34824 3.8977,2.78364 5.75,4.3125 1.8523,1.52886 3.64687,3.14687 5.34375,4.84375 1.69688,1.69688 3.31489,3.4602 4.84375,5.3125 1.52886,1.8523 2.96426,3.78613 4.3125,5.78125 1.34824,1.99512 2.59497,4.06216 3.75,6.1875 1.15503,2.12534 2.20703,4.31953 3.15625,6.5625 0.94922,2.24297 1.80044,4.527 2.53125,6.875 0.73081,2.348 1.34395,4.74707 1.84375,7.1875 0.4998,2.44043 0.90005,4.91724 1.15625,7.4375 0.2562,2.52026 0.375,5.1 0.375,7.6875 l 175,0 c 0,-92.00001 -45.32567,-170.53125 -125,-216.53125 z" />
        <path
           inkscape:connector-curvature="0"
           id="path1307"
           style="color:#000000;fill:#000000;fill-opacity:1;fill-rule:evenodd;stroke:none;stroke-width:1px;marker:none;visibility:visible;display:inline;overflow:visible"
           d="m 644.2857,862.77797 c 0,27.61425 -22.38577,50.00002 -50.00002,50.00002 -27.61425,0 -50.00002,-22.38577 -50.00002,-50.00002 0,-27.61424 22.38577,-50.00002 50.00002,-50.00002 27.61425,0 50.00002,22.38578 50.00002,50.00002 l 0,0 z" />
      </g>
    </g>
    <text
       xml:space="preserve"
       style="font-size:40px;font-style:normal;font-weight:normal;line-height:125%;letter-spacing:0px;word-spacing:0px;fill:#000000;fill-opacity:1;stroke:none;font-family:Sans"
       id="text3069"
       sodipodi:linespacing="125%"
       transform="translate(0,-6)"><textPath
         xlink:href="#path3120"
         id="textPath3122"><tspan
   style="font-size:18px;font-style:normal;font-variant:normal;font-weight:bold;font-stretch:normal;text-align:start;line-height:125%;writing-mode:lr-tb;text-anchor:start;fill:#ffff00;font-family:Sans;-inkscape-font-specification:Sans Bold"
   id="tspan3071"> https://cleaninsights.io</tspan></textPath></text>
    <path
       style="fill:none;stroke:#000000;stroke-width:1px;stroke-linecap:butt;stroke-linejoin:miter;stroke-opacity:1"
       d="m 227.28432,751.33673 37.37564,19.19289 52.52794,13.13199 37.37564,0 55.55839,-7.07107 39.39595,-9.09137"
       id="path3073"
       inkscape:connector-curvature="0" />
    <path
       style="fill:none;stroke:#000000;stroke-width:1px;stroke-linecap:butt;stroke-linejoin:miter;stroke-opacity:1"
       d="m 240.4163,756.38749 c 0,0 -7.07106,11.11168 41.41626,17.17259 48.48732,6.06092 -2.02031,6.06092 48.48732,6.06092 50.50763,0 8.08122,5.05076 50.50763,-1.01016 42.4264,-6.06091 42.4264,-6.06091 42.4264,-6.06091 l 32.32488,-12.12183"
       id="path3111"
       inkscape:connector-curvature="0" />
    <text
       xml:space="preserve"
       style="font-size:40px;font-style:normal;font-weight:normal;line-height:125%;letter-spacing:0px;word-spacing:0px;fill:#000000;fill-opacity:1;stroke:none;font-family:Sans"
       x="238.396"
       y="746.28595"
       id="text3125"
       sodipodi:linespacing="125%"><tspan
         sodipodi:role="line"
         id="tspan3127"
         x="238.396"
         y="746.28595">   </tspan></text>
    <text
       xml:space="preserve"
       style="font-size:40px;font-style:normal;font-weight:normal;line-height:125%;letter-spacing:0px;word-spacing:0px;fill:#000000;fill-opacity:1;stroke:none;font-family:Sans"
       x="321.22852"
       y="769.51947"
       id="text3129"
       sodipodi:linespacing="125%"><tspan
         sodipodi:role="line"
         id="tspan3131"
         x="321.22852"
         y="769.51947"> </tspan></text>
    <path
       style="fill:none;stroke:none;stroke-width:1px;stroke-linecap:butt;stroke-linejoin:miter;stroke-opacity:1"
       d="m 234.21325,748.26566 55.55839,23.23351 c 0,0 -3.03045,7.07106 57.5787,6.06091 60.60915,-1.01015 60.60915,-1.01015 60.60915,-1.01015 l 55.55839,-20.20305"
       id="path3120"
       inkscape:connector-curvature="0" />
    <text
       xml:space="preserve"
       style="font-size:40px;font-style:normal;font-weight:normal;line-height:125%;letter-spacing:0px;word-spacing:0px;fill:#000000;fill-opacity:1;stroke:none;font-family:Sans"
       x="274.76151"
       y="754.36719"
       id="text3133"
       sodipodi:linespacing="125%"><tspan
         sodipodi:role="line"
         id="tspan3135"
         x="274.76151"
         y="754.36719">  </tspan></text>
  </g>
</svg>
