<?xml version="1.0" encoding="UTF-8" standalone="no"?>
<!-- Created with Inkscape (http://www.inkscape.org/) -->

<svg
   xmlns:dc="http://purl.org/dc/elements/1.1/"
   xmlns:cc="http://creativecommons.org/ns#"
   xmlns:rdf="http://www.w3.org/1999/02/22-rdf-syntax-ns#"
   xmlns:svg="http://www.w3.org/2000/svg"
   xmlns="http://www.w3.org/2000/svg"
   xmlns:sodipodi="http://sodipodi.sourceforge.net/DTD/sodipodi-0.dtd"
   xmlns:inkscape="http://www.inkscape.org/namespaces/inkscape"
   width="744.09448819"
   height="1052.3622047"
   id="svg2"
   version="1.1"
   inkscape:version="0.48.4 r9939"
   sodipodi:docname="dataistoxic.svg">
  <defs
     id="defs4">
    <clipPath
       clipPathUnits="userSpaceOnUse"
       id="clipPath4048">
      <path
         sodipodi:type="arc"
         style="fill:#999999;fill-opacity:1;stroke:#000000;stroke-width:5;stroke-miterlimit:4;stroke-opacity:1;stroke-dasharray:none"
         id="path4050"
         sodipodi:cx="177.14285"
         sodipodi:cy="306.64789"
         sodipodi:rx="260"
         sodipodi:ry="250"
         d="m 437.14285,306.64789 a 260,250 0 1 1 -519.999997,0 260,250 0 1 1 519.999997,0 z"
         transform="matrix(1.0187361,0,0,1.0851999,174.53817,193.87365)" />
    </clipPath>
  </defs>
  <sodipodi:namedview
     id="base"
     pagecolor="#ffffff"
     bordercolor="#666666"
     borderopacity="1.0"
     inkscape:pageopacity="0.0"
     inkscape:pageshadow="2"
     inkscape:zoom="1.979899"
     inkscape:cx="275.85178"
     inkscape:cy="572.80911"
     inkscape:document-units="px"
     inkscape:current-layer="layer1"
     showgrid="false"
     inkscape:window-width="1920"
     inkscape:window-height="1056"
     inkscape:window-x="0"
     inkscape:window-y="24"
     inkscape:window-maximized="1" />
  <metadata
     id="metadata7">
    <rdf:RDF>
      <cc:Work
         rdf:about="">
        <dc:format>image/svg+xml</dc:format>
        <dc:type
           rdf:resource="http://purl.org/dc/dcmitype/StillImage" />
        <dc:title></dc:title>
      </cc:Work>
    </rdf:RDF>
  </metadata>
  <g
     inkscape:label="Layer 1"
     inkscape:groupmode="layer"
     id="layer1">
    <path
       sodipodi:type="arc"
       style="fill:#ffffff;fill-opacity:1;stroke:#000000;stroke-opacity:1;stroke-width:5;stroke-miterlimit:4;stroke-dasharray:none"
       id="path2987"
       sodipodi:cx="354.28571"
       sodipodi:cy="522.36218"
       sodipodi:rx="268.57144"
       sodipodi:ry="268.57144"
       d="m 622.85715,522.36218 a 268.57144,268.57144 0 1 1 -537.142886,0 268.57144,268.57144 0 1 1 537.142886,0 z"
       inkscape:export-filename="/home/n8fr8/Desktop/dataistoxic.png"
       inkscape:export-xdpi="602.3222"
       inkscape:export-ydpi="602.3222" />
    <text
       xml:space="preserve"
       style="font-size:40px;font-style:normal;font-weight:normal;line-height:125%;letter-spacing:0px;word-spacing:0px;fill:#000000;fill-opacity:1;stroke:none;font-family:Sans"
       x="70.000008"
       y="209.50504"
       id="text3939"
       sodipodi:linespacing="125%"
       clip-path="url(#clipPath4048)"
       inkscape:export-filename="/home/n8fr8/Desktop/dataistoxic.png"
       inkscape:export-xdpi="602.3222"
       inkscape:export-ydpi="602.3222"><tspan
         sodipodi:role="line"
         x="70.000008"
         y="209.50504"
         style="font-size:25px;font-style:normal;font-variant:normal;font-weight:normal;font-stretch:normal;text-align:start;line-height:125%;writing-mode:lr-tb;text-anchor:start;fill:#999999;font-family:Sans;-inkscape-font-specification:Sans"
         id="tspan4010">emailsasldkjasdlkjas</tspan><tspan
         sodipodi:role="line"
         x="70.000008"
         y="240.75504"
         style="font-size:25px;font-style:normal;font-variant:normal;font-weight:normal;font-stretch:normal;text-align:start;line-height:125%;writing-mode:lr-tb;text-anchor:start;fill:#999999;font-family:Sans;-inkscape-font-specification:Sans"
         id="tspan4183">daskd</tspan><tspan
         sodipodi:role="line"
         x="70.000008"
         y="272.00504"
         style="font-size:25px;font-style:normal;font-variant:normal;font-weight:normal;font-stretch:normal;text-align:start;line-height:125%;writing-mode:lr-tb;text-anchor:start;fill:#999999;font-family:Sans;-inkscape-font-specification:Sans"
         id="tspan4201">lasjkdemails, birthdays, children </tspan><tspan
         sodipodi:role="line"
         x="70.000008"
         y="303.25504"
         style="font-size:25px;font-style:normal;font-variant:normal;font-weight:normal;font-stretch:normal;text-align:start;line-height:125%;writing-mode:lr-tb;text-anchor:start;fill:#999999;font-family:Sans;-inkscape-font-specification:Sans"
         id="tspan4193">sleep habits, location, credit score, devr</tspan><tspan
         sodipodi:role="line"
         x="70.000008"
         y="334.50504"
         style="font-size:25px;font-style:normal;font-variant:normal;font-weight:normal;font-stretch:normal;text-align:start;line-height:125%;writing-mode:lr-tb;text-anchor:start;fill:#999999;font-family:Sans;-inkscape-font-specification:Sans"
         id="tspan4195">credit score, mortgage, website visitor logs</tspan><tspan
         sodipodi:role="line"
         x="70.000008"
         y="365.75504"
         style="font-size:25px;font-style:normal;font-variant:normal;font-weight:normal;font-stretch:normal;text-align:start;line-height:125%;writing-mode:lr-tb;text-anchor:start;fill:#999999;font-family:Sans;-inkscape-font-specification:Sans"
         id="tspan4197">travel plans, passwords, health conditions</tspan><tspan
         sodipodi:role="line"
         x="70.000008"
         y="397.00504"
         style="font-size:25px;font-style:normal;font-variant:normal;font-weight:normal;font-stretch:normal;text-align:start;line-height:125%;writing-mode:lr-tb;text-anchor:start;fill:#999999;font-family:Sans;-inkscape-font-specification:Sans"
         id="tspan4199">worbirthdays, viewing habits, fitness tracking</tspan><tspan
         sodipodi:role="line"
         x="70.000008"
         y="428.25504"
         style="font-size:25px;font-style:normal;font-variant:normal;font-weight:normal;font-stretch:normal;text-align:start;line-height:125%;writing-mode:lr-tb;text-anchor:start;fill:#999999;font-family:Sans;-inkscape-font-specification:Sans"
         id="tspan4189">dklspeeding tickets, transcripts, home security </tspan><tspan
         sodipodi:role="line"
         x="70.000008"
         y="459.50504"
         style="font-size:25px;font-style:normal;font-variant:normal;font-weight:normal;font-stretch:normal;text-align:start;line-height:125%;writing-mode:lr-tb;text-anchor:start;fill:#999999;font-family:Sans;-inkscape-font-specification:Sans"
         id="tspan4205">asgenetic traits, favorite restuarants, shopping</tspan><tspan
         sodipodi:role="line"
         x="70.000008"
         y="490.75504"
         style="font-size:25px;font-style:normal;font-variant:normal;font-weight:normal;font-stretch:normal;text-align:start;line-height:125%;writing-mode:lr-tb;text-anchor:start;fill:#999999;font-family:Sans;-inkscape-font-specification:Sans"
         id="tspan4207">private messages, social graph, political views</tspan><tspan
         sodipodi:role="line"
         x="70.000008"
         y="522.005"
         style="font-size:25px;font-style:normal;font-variant:normal;font-weight:normal;font-stretch:normal;text-align:start;line-height:125%;writing-mode:lr-tb;text-anchor:start;fill:#999999;font-family:Sans;-inkscape-font-specification:Sans"
         id="tspan4209">gmedical records, prescriptions drugs, debt</tspan><tspan
         sodipodi:role="line"
         x="70.000008"
         y="553.255"
         style="font-size:25px;font-style:normal;font-variant:normal;font-weight:normal;font-stretch:normal;text-align:start;line-height:125%;writing-mode:lr-tb;text-anchor:start;fill:#999999;font-family:Sans;-inkscape-font-specification:Sans"
         id="tspan4211">savings, college photos from </tspan><tspan
         sodipodi:role="line"
         x="70.000008"
         y="584.505"
         style="font-size:25px;font-style:normal;font-variant:normal;font-weight:normal;font-stretch:normal;text-align:start;line-height:125%;writing-mode:lr-tb;text-anchor:start;fill:#999999;font-family:Sans;-inkscape-font-specification:Sans"
         id="tspan4213">greatest fears and doubts</tspan><tspan
         sodipodi:role="line"
         x="70.000008"
         y="615.755"
         style="font-size:25px;font-style:normal;font-variant:normal;font-weight:normal;font-stretch:normal;text-align:start;line-height:125%;writing-mode:lr-tb;text-anchor:start;fill:#999999;font-family:Sans;-inkscape-font-specification:Sans"
         id="tspan4215">asdlkjasdljkasdlkjsadlaskjdlakjalskdjalskdjasldkjasldkjasd</tspan></text>
    <path
       style="fill:none;stroke:#000000;stroke-width:0.99202579px;stroke-linecap:butt;stroke-linejoin:miter;stroke-opacity:1"
       d="m 89.996013,582.36515 c 29.928547,-43.30602 60.258017,-72.86142 113.869507,-72.86142 9.08423,0 19.33879,-2.37287 26.71012,4.28597 24.98861,22.57327 24.9791,61.10166 47.79707,84.29066 5.01077,5.09225 34.9822,-3.1234 37.9565,-4.28597 33.07028,-12.92616 48.84544,-39.09827 64.66664,-68.57544 8.07813,-15.05076 15.67709,-52.90362 36.55069,-57.14622 12.22222,-2.48419 34.63928,-7.4002 46.39128,-1.42865 13.65209,6.93704 26.73345,39.54587 40.7681,51.43159 34.21767,28.97839 97.21325,5.28105 113.8695,-28.57311"
       id="path3774"
       inkscape:connector-curvature="0"
       inkscape:export-filename="/home/n8fr8/Desktop/dataistoxic.png"
       inkscape:export-xdpi="602.3222"
       inkscape:export-ydpi="602.3222" />
    <text
       xml:space="preserve"
       style="font-size:40px;font-style:normal;font-weight:normal;line-height:125%;letter-spacing:0px;word-spacing:0px;fill:#000000;fill-opacity:1;stroke:none;font-family:Sans"
       x="211.42857"
       y="402.36218"
       id="text3776"
       sodipodi:linespacing="125%"
       inkscape:export-filename="/home/n8fr8/Desktop/dataistoxic.png"
       inkscape:export-xdpi="602.3222"
       inkscape:export-ydpi="602.3222"><tspan
         sodipodi:role="line"
         id="tspan3778"></tspan></text>
    <text
       xml:space="preserve"
       style="font-size:40px;font-style:normal;font-weight:normal;line-height:125%;letter-spacing:0px;word-spacing:0px;fill:#000000;fill-opacity:1;stroke:none;font-family:Sans"
       x="204.28571"
       y="396.64789"
       id="text3784"
       sodipodi:linespacing="125%"
       inkscape:export-filename="/home/n8fr8/Desktop/dataistoxic.png"
       inkscape:export-xdpi="602.3222"
       inkscape:export-ydpi="602.3222"><tspan
         sodipodi:role="line"
         id="tspan3786"
         x="204.28571"
         y="396.64789"
         style="-inkscape-font-specification:DejaVu Sans Bold;font-family:DejaVu Sans;font-weight:bold;font-style:normal;font-stretch:normal;font-variant:normal;font-size:80px;text-anchor:start;text-align:start;writing-mode:lr;line-height:125%">DATA</tspan></text>
    <text
       xml:space="preserve"
       style="font-size:40px;font-style:normal;font-weight:normal;line-height:125%;letter-spacing:0px;word-spacing:0px;fill:#000000;fill-opacity:1;stroke:none;font-family:Sans"
       x="247.55301"
       y="688.66522"
       id="text3784-3"
       sodipodi:linespacing="125%"
       inkscape:export-filename="/home/n8fr8/Desktop/dataistoxic.png"
       inkscape:export-xdpi="602.3222"
       inkscape:export-ydpi="602.3222"><tspan
         sodipodi:role="line"
         id="tspan3786-6"
         x="247.55301"
         y="688.66522"
         style="font-size:80px;font-style:normal;font-variant:normal;font-weight:bold;font-stretch:normal;text-align:start;line-height:125%;writing-mode:lr-tb;text-anchor:start;font-family:DejaVu Sans;-inkscape-font-specification:DejaVu Sans Bold;fill:#ffffff;fill-opacity:1">TOXIC</tspan></text>
    <text
       xml:space="preserve"
       style="font-size:40px;font-style:normal;font-weight:normal;line-height:125%;letter-spacing:0px;word-spacing:0px;fill:#000000;fill-opacity:1;stroke:none;font-family:Sans"
       x="277.55301"
       y="511.52231"
       id="text3784-7"
       sodipodi:linespacing="125%"
       inkscape:export-filename="/home/n8fr8/Desktop/dataistoxic.png"
       inkscape:export-xdpi="602.3222"
       inkscape:export-ydpi="602.3222"><tspan
         sodipodi:role="line"
         id="tspan3786-5"
         x="277.55301"
         y="511.52231"
         style="font-size:80px;font-style:normal;font-variant:normal;font-weight:bold;font-stretch:normal;text-align:start;line-height:125%;writing-mode:lr-tb;text-anchor:start;font-family:DejaVu Sans;-inkscape-font-specification:DejaVu Sans Bold">IS</tspan></text>
    <path
       style="fill:#000000;fill-opacity:1;stroke:#000000;stroke-width:7.14285707;stroke-miterlimit:4;stroke-opacity:1;stroke-dasharray:none"
       d="M 331.36683,786.48226 C 247.5006,778.83294 173.39781,732.93656 128.26098,660.68637 115.57922,640.38677 103.7967,612.80654 97.840783,589.47953 l -2.970879,-11.63579 5.984256,-8.19955 c 3.29134,-4.50975 12.46743,-14.68912 20.39132,-22.62082 26.61995,-26.64619 49.70862,-36.11313 88.40658,-36.24891 14.71972,-0.0516 18.60253,1.50412 25.68354,10.29087 7.07312,8.77697 11.45993,16.95577 18.17373,33.88326 11.17773,28.1823 20.3343,43.47959 27.11804,45.30427 4.75695,1.27952 24.82749,-1.72827 35.08755,-5.25825 29.68648,-10.21365 53.88372,-38.55169 73.60282,-86.19829 12.48679,-30.17138 18.21953,-37.16755 32.98125,-40.24987 24.55571,-5.12736 37.03143,-4.42967 44.93885,2.51315 2.7699,2.432 10.81265,12.97112 17.87279,23.42027 7.06013,10.44915 15.76146,21.57301 19.33627,24.71969 18.2125,16.03129 50.25917,17.07985 80.49136,2.63367 9.33256,-4.45949 14.51166,-8.1686 22.37807,-16.02654 l 10.23521,-10.22418 0.83622,4.18106 c 1.59908,7.99542 0.82278,40.96798 -1.34174,56.9891 -7.88898,58.39159 -33.77926,110.94181 -75.06422,152.35991 -40.12714,40.25655 -90.31447,65.94638 -146.60598,75.04449 -16.806,2.71626 -47.49758,3.83116 -64.00899,2.32519 l 0,0 z"
       id="path3848"
       inkscape:connector-curvature="0"
       inkscape:export-filename="/home/n8fr8/Desktop/dataistoxic.png"
       inkscape:export-xdpi="602.3222"
       inkscape:export-ydpi="602.3222" />
    <text
       xml:space="preserve"
       style="font-size:40px;font-style:normal;font-weight:normal;line-height:125%;letter-spacing:0px;word-spacing:0px;fill:#ffffff;fill-opacity:1;stroke:none;font-family:Sans"
       x="233.2673"
       y="698.66516"
       id="text3784-35"
       sodipodi:linespacing="125%"
       inkscape:export-filename="/home/n8fr8/Desktop/dataistoxic.png"
       inkscape:export-xdpi="602.3222"
       inkscape:export-ydpi="602.3222"><tspan
         sodipodi:role="line"
         id="tspan3786-62"
         x="233.2673"
         y="698.66516"
         style="font-size:80px;font-style:normal;font-variant:normal;font-weight:bold;font-stretch:normal;text-align:start;line-height:125%;writing-mode:lr-tb;text-anchor:start;fill:#ffff00;font-family:DejaVu Sans;-inkscape-font-specification:DejaVu Sans Bold">TOXIC</tspan></text>
    <flowRoot
       xml:space="preserve"
       id="flowRoot3931"
       style="fill:black;stroke:none;stroke-opacity:1;stroke-width:1px;stroke-linejoin:miter;stroke-linecap:butt;fill-opacity:1;font-family:Sans;font-style:normal;font-weight:normal;font-size:40px;line-height:125%;letter-spacing:0px;word-spacing:0px"
       inkscape:export-filename="/home/n8fr8/Desktop/dataistoxic.png"
       inkscape:export-xdpi="602.3222"
       inkscape:export-ydpi="602.3222"><flowRegion
         id="flowRegion3933"><rect
           id="rect3935"
           width="451.42856"
           height="120"
           x="-260"
           y="549.50507" /></flowRegion><flowPara
         id="flowPara3937"></flowPara></flowRoot>    <g
       id="g3512"
       transform="matrix(0.19530658,0,0,0.18950693,276.99837,554.50778)"
       inkscape:export-filename="/home/n8fr8/Desktop/dataistoxic.png"
       inkscape:export-xdpi="602.3222"
       inkscape:export-ydpi="602.3222">
      <circle
         transform="matrix(0.828945,0,0,0.828945,25.7867,401.5638)"
         sodipodi:ry="200"
         sodipodi:rx="200"
         sodipodi:cy="240"
         sodipodi:cx="240"
         id="circle3850"
         style="font-size:12px;fill:#ffff00;fill-opacity:1;stroke:none"
         r="200"
         cy="240"
         cx="240"
         d="M 440,240 C 440,350.45695 350.45695,440 240,440 129.54305,440 40,350.45695 40,240 40,129.54305 129.54305,40 240,40 c 110.45695,0 200,89.54305 200,200 z" />
      <circle
         transform="matrix(0.828945,0,0,0.828945,25.7868,401.5638)"
         sodipodi:ry="200"
         sodipodi:rx="200"
         sodipodi:cy="240"
         sodipodi:cx="240"
         id="circle663"
         style="font-size:12px;fill:none;stroke:#000000;stroke-width:20"
         r="200"
         cy="240"
         cx="240"
         d="M 440,240 C 440,350.45695 350.45695,440 240,440 129.54305,440 40,350.45695 40,240 40,129.54305 129.54305,40 240,40 c 110.45695,0 200,89.54305 200,200 z" />
      <path
         inkscape:connector-curvature="0"
         id="path7214"
         style="font-size:12px;fill:#000000;fill-opacity:1"
         d="m 221.9085,444.97278 c -4.2e-4,6.8e-4 4.1e-4,0.0231 0,0.0238 0.008,-0.002 0.0162,-0.0209 0.0237,-0.0238 -0.003,0 -0.0207,-1.3e-4 -0.0237,0 z m -1.78,0.0713 c -0.0167,0.002 -0.0308,0.0213 -0.0475,0.0237 0.0637,-0.004 0.12625,-0.02 0.18999,-0.0237 -0.0157,1.7e-4 -0.032,-7.4e-4 -0.0476,0 -0.0346,0.002 -0.0614,-0.004 -0.0949,0 z m 8.63886,0.0474 c 0.12657,0.009 0.2534,0.0137 0.37974,0.0238 -0.12427,-0.008 -0.25516,-0.0168 -0.37974,-0.0238 z m 0.37974,0.0238 c 31.96005,2.54021 57.12558,29.33355 57.12558,61.94345 0,33.20299 -26.11889,60.28355 -58.90558,61.96713 l 0,12.72099 c 8.95103,1.41518 15.80624,9.18861 15.80624,18.53555 0,2.28772 -0.41182,4.47539 -1.16292,6.5029 l 11.62927,6.71645 c 17.97186,-27.14754 54.23083,-36.00581 82.80474,-19.50864 28.50592,16.45796 39.03137,52.16253 24.65862,81.26198 19.7255,-38.39284 6.00869,-85.97901 -31.77852,-107.79552 -9.45445,-5.45853 -19.52788,-8.78392 -29.71387,-10.15781 3.89902,-9.50602 6.05188,-19.91516 6.05188,-30.8293 0,-43.31539 -33.84541,-78.77493 -76.51544,-81.35718 z m -10.41885,0.0475 c -42.45675,2.80424 -76.0883,38.14743 -76.0883,81.30972 0,10.60345 2.02661,20.73722 5.71973,30.02232 -9.88294,1.44692 -19.67991,4.73933 -28.85948,10.03911 -37.53422,21.67045 -51.28373,68.75602 -32.13447,107.0125 -13.82591,-28.96011 -3.22311,-64.18589 25.03829,-80.50259 28.75453,-16.60145 65.26193,-7.52151 83.11327,20.03071 l 11.22582,-6.47911 c -0.70552,-1.97223 -1.06802,-4.09923 -1.06802,-6.313 0,-8.95004 6.27495,-16.43583 14.66703,-18.29823 l 0,-12.98194 c -32.49639,-1.99038 -58.28844,-28.94908 -58.28844,-61.9435 0,-32.46069 24.92307,-59.14755 56.67457,-61.89599 z m 3.63119,78.03456 c -16.40192,0.37733 -31.52254,5.96111 -43.92995,15.04684 0.99117,1.46682 2.0562,2.88639 3.18017,4.24818 1.12413,1.36179 2.31251,2.66845 3.56007,3.91593 1.24748,1.24757 2.55406,2.43603 3.91593,3.55999 1.00129,0.82646 2.07403,1.57044 3.13275,2.32586 9.1586,-6.01334 20.1263,-9.54066 31.94481,-9.54066 11.81836,0 22.76234,3.52732 31.92094,9.54066 1.05873,-0.75542 2.13147,-1.4994 3.13275,-2.32586 1.36188,-1.12396 2.66846,-2.31242 3.91593,-3.55999 1.24765,-1.24748 2.43603,-2.55414 3.56008,-3.91593 1.12396,-1.36179 2.18891,-2.78136 3.18016,-4.24818 -12.85578,-9.41416 -28.6224,-15.04684 -45.70986,-15.04684 -0.40054,0 -0.81136,-0.006 -1.2105,0 -0.19481,0.003 -0.39881,-0.004 -0.59328,0 z m -74.75924,68.44624 c -1.72496,15.84048 1.28179,32.31203 9.82557,47.1102 8.54368,14.79816 21.30364,25.66074 35.88437,32.08714 0.77472,-1.59182 1.47113,-3.23471 2.08852,-4.88904 0.6174,-1.65432 1.15721,-3.32722 1.61379,-5.03136 0.45667,-1.70423 0.84669,-3.43249 1.13922,-5.17386 0.21511,-1.28031 0.32619,-2.57396 0.45103,-3.86852 -9.78702,-4.92494 -18.32234,-12.66728 -24.23156,-22.90243 -5.90921,-10.23507 -8.34167,-21.48112 -7.71325,-32.41938 -1.18348,-0.53923 -2.36738,-1.08874 -3.58369,-1.54267 -1.65433,-0.61731 -3.32723,-1.15712 -5.03145,-1.61379 -1.70414,-0.45667 -3.43241,-0.82298 -5.17378,-1.11551 -1.74136,-0.29254 -3.50287,-0.51577 -5.26877,-0.64078 z m 153.64805,0.9256 c -1.76599,0.1251 -3.52734,0.34824 -5.2687,0.64078 -1.74144,0.29262 -3.46971,0.65884 -5.17394,1.11551 -1.70407,0.45667 -3.40075,0.99648 -5.05507,1.61387 -1.2164,0.45385 -2.37651,1.02715 -3.55991,1.5663 0.62825,10.93818 -1.80411,22.18439 -7.71334,32.41946 -5.90922,10.23499 -14.44453,17.9537 -24.23139,22.87864 0.12467,1.29448 0.23575,2.58821 0.45086,3.86852 0.29254,1.74136 0.65876,3.46963 1.11543,5.17386 0.45666,1.70414 0.99656,3.40083 1.61388,5.05507 0.61731,1.65441 1.31387,3.27342 2.08852,4.86525 14.58073,-6.42632 27.34069,-17.26519 35.88437,-32.06335 8.54386,-14.79817 11.57423,-31.29343 9.84929,-47.13391 z m -90.94524,20.03072 -11.29694,6.55041 c 14.52453,29.13775 4.08139,64.95464 -24.49243,81.45181 -28.43323,16.41585 -64.50627,7.77725 -82.5675,-19.05762 23.43686,36.11316 71.3639,47.95141 109.07725,26.17751 9.13572,-5.27449 16.84226,-12.07416 23.02113,-19.86451 6.30015,8.18924 14.27377,15.30142 23.78053,20.79011 37.7558,21.79828 85.74044,9.91195 109.14853,-26.29621 -18.02781,26.951 -54.15333,35.66984 -82.63862,19.22382 -28.75453,-16.60153 -39.14304,-52.76186 -24.20776,-81.99776 l -11.7479,-6.78765 c -3.43324,3.8226 -8.41644,6.24179 -13.95504,6.24179 -5.62961,0 -10.68352,-2.49918 -14.12125,-6.4317 z" />
    </g>
  </g>
</svg>
